<svg width="222" height="144" fill="none" xmlns="http://www.w3.org/2000/svg"><path d="M71.6066 32.323C68.9952 33.0235 40.5654 57.8909 34.1108 68.048C31.6472 71.9007 23.0739 83.1085 33.1746 92.6652C43.2753 102.222 52.7848 96.718 52.7848 96.718C52.7848 96.718 53.8195 99.57 65.9896 99.2698C81.116 98.8695 81.7565 98.6194 83.4318 97.3685C83.4318 97.3685 88.8517 95.1169 88.6053 92.1148C88.359 89.1127 86.2403 88.7625 81.0667 87.8618C75.8932 86.9612 71.4588 86.9112 71.4588 86.9112L72.2964 85.4602C72.2964 85.4602 80.6233 84.5595 84.3679 80.7569C84.3679 80.7569 90.9211 90.4637 92.9412 92.2149C94.9614 93.9661 99.6915 96.9682 103.535 95.0168C103.535 95.0168 105.9 96.1176 107.92 94.7166C107.92 94.7166 109.743 93.6659 109.299 92.6152C109.299 92.6152 110.925 92.5651 112.748 92.0648C117.084 90.8139 115.557 88.7124 114.769 87.1614C112.896 83.4087 108.215 84.1092 106.59 82.1078C105.308 80.5567 104.175 65.9966 103.091 60.9931C102.007 55.9896 108.462 49.7852 106.392 42.33C104.323 34.8748 71.6066 32.323 71.6066 32.323Z" fill="#000"/><path d="M106.588 82.1576C105.652 81.0568 104.863 73.5515 104.075 67.4473C102.794 67.7475 103.237 71.5501 102.942 72.1005C102.843 72.3007 102.449 70.4494 102.203 70.5995C101.71 71.0498 102.153 73.8017 101.858 74.4522C101.464 75.3028 100.872 73.4014 100.872 73.4014C99.9855 74.0019 100.872 76.5036 100.675 77.054C100.577 77.3542 99.5913 76.0033 99.5913 76.0033C98.2117 76.7538 99.1971 78.8052 98.7537 79.0554L95.2554 87.8115C95.2554 87.8115 103.434 93.9658 105.553 95.4168C106.243 95.4168 107.081 95.2167 107.82 94.7163C107.82 94.7163 109.643 93.6656 109.199 92.6149C109.199 92.6149 110.825 92.5648 112.648 92.0645C116.984 90.8136 115.457 88.7121 114.668 87.1611C112.895 83.4084 108.263 84.1089 106.588 82.1576Z" fill="#fff" stroke="#000" stroke-width=".804" stroke-miterlimit="10" stroke-linecap="round" stroke-linejoin="round"/><path d="M109.298 92.615C109.298 92.565 109.249 92.565 109.249 92.5149 109.249 92.4649 109.2 92.4649 109.2 92.4148 109.151 92.2647 109.052 92.0646 108.904 91.8144 108.855 91.7644 108.855 91.7144 108.806 91.6643 108.707 91.4642 108.609 91.3141 108.51 91.1139 108.067 90.4134 107.525 89.5629 106.736 88.8123 106.539 88.6122 106.293 88.412 106.046 88.2119 105.948 88.1619 105.899 88.1118 105.8 88.0118 105.652 87.9117 105.455 87.7616 105.307 87.6615 105.11 87.5615 104.962 87.4614 104.765 87.3613 104.47 87.2112 104.174 87.1111 103.878 87.0111 100.528 86.0104 100.035 84.3592 99.7889 82.3578 99.7889 82.3578 99.1484 79.4057 98.5571 75.453 97.8673 70.8998 97.276 71.4502 96.6355 75.3529 96.6355 75.3529 95.8964 74.3022 95.6501 74.6524 95.2066 75.3529 95.5515 77.6045 95.4037 78.0048 95.4037 78.0048 94.4675 76.954 94.2212 77.3043 93.827 77.9047 94.2705 80.2063 94.1226 80.5566 94.1226 80.5566 92.5952 79.0055 92.1025 79.2556 91.6591 79.4558 92.201 81.7574 92.201 81.7574 91.8069 81.7574 89.836 79.4558 88.5549 80.0062 88.2593 80.1563 88.9491 81.157 89.294 81.9075 89.5896 82.5079 89.5404 82.9082 89.5404 82.9082 87.4217 81.5072 85.5986 80.2563 84.5146 81.0069L85.2045 82.0576C85.3523 82.3078 85.5494 82.558 85.7464 82.8081 85.7957 82.8582 85.7957 82.9082 85.845 82.9082 85.8943 82.9582 85.9435 83.0583 85.9928 83.1083 86.0421 83.1584 86.0913 83.2084 86.1406 83.3085 86.1899 83.3585 86.2392 83.4586 86.2884 83.5086 86.3377 83.6087 86.387 83.6587 86.4855 83.7588 86.5348 83.8088 86.5841 83.8589 86.6333 83.9589 86.7319 84.059 86.7811 84.1591 86.8797 84.3092 86.929 84.3592 86.929 84.4092 86.9782 84.4593 87.0275 84.5594 87.1261 84.6594 87.1753 84.7595 87.2246 84.8095 87.2246 84.8596 87.2739 84.9096 87.3724 85.0097 87.4217 85.1598 87.5202 85.2598 87.5202 85.3099 87.5695 85.3099 87.5695 85.3599 87.668 85.51 87.7666 85.6601 87.9144 85.8102 87.9144 85.8603 87.9637 85.8603 87.9637 85.9103 88.0622 86.0104 88.1608 86.1605 88.21 86.2605 88.2593 86.3106 88.2593 86.3606 88.3086 86.4107 88.4071 86.5107 88.5057 86.6608 88.5549 86.7609 88.5549 86.8109 88.6042 86.8109 88.6042 86.861 88.7027 87.0111 88.8506 87.1612 88.9491 87.3113 89.0476 87.4614 89.1462 87.6115 89.2447 87.7616 89.294 87.8116 89.294 87.8116 89.3433 87.8617 89.4418 87.9617 89.5404 88.1118 89.5896 88.2119 89.5896 88.2619 89.6389 88.2619 89.6389 88.312 89.836 88.6122 90.0824 88.9124 90.2794 89.1626 90.3287 89.2126 90.3287 89.2126 90.378 89.2626 90.4765 89.3627 90.5258 89.4628 90.6243 89.5629 90.6736 89.6129 90.6736 89.6129 90.7229 89.6629 90.8214 89.763 90.92 89.9131 90.9692 90.0132L91.0185 90.0632C91.1171 90.2133 91.2156 90.3134 91.3141 90.4135 91.3141 90.4635 91.3634 90.4635 91.3634 90.4635 91.462 90.5635 91.5112 90.6636 91.5605 90.7137 91.6098 90.7637 91.6098 90.7637 91.659 90.8137 91.7083 90.9138 91.8069 90.9638 91.8561 91.0639 91.8561 91.1139 91.9054 91.1139 91.9054 91.164 92.004 91.264 92.0532 91.3641 92.1518 91.4642L92.201 91.5142C92.2503 91.5643 92.3489 91.6643 92.3981 91.7144L92.4474 91.7644C92.4967 91.8144 92.5459 91.8645 92.5952 91.9145L92.6445 91.9645C92.6938 92.0146 92.7923 92.0646 92.8416 92.1146 93.0387 92.2647 93.2357 92.4649 93.4821 92.615 93.6299 92.7151 93.827 92.8652 93.9748 92.9652 94.0734 93.0153 94.1719 93.0653 94.2212 93.1654 94.6646 93.4656 95.1573 93.8158 95.6993 94.066 97.4238 95.0167 99.5425 95.7172 101.513 95.467 102.154 95.3669 102.745 95.2168 103.336 94.8666 103.336 94.8666 104.076 95.2168 105.11 95.2668 105.554 95.3169 106.046 95.2668 106.588 95.1167 106.983 95.0167 107.377 94.8165 107.722 94.5664 107.722 94.5664 109.151 93.7658 109.2 92.8652 109.348 92.8652 109.348 92.7651 109.298 92.615zM81.067 87.8112C81.0177 87.8112 81.0177 87.8112 80.9685 87.8112 81.067 87.8112 76.7804 87.1107 75.4993 88.2115 75.1051 88.5117 78.16 90.413 77.5687 90.6632 76.7311 91.0135 73.5777 88.962 71.6068 89.4624 71.6068 89.4624 73.627 91.3137 72.0995 91.5639 71.459 91.6639 67.3695 90.363 66.384 91.5639 66.384 91.5639 69.7838 93.4652 67.8622 93.7654 63.9697 94.3158 62.2452 94.616 62.393 95.6667 62.393 95.6667 67.9114 96.117 67.7636 99.2192 81.1655 98.869 81.8553 98.5687 83.4813 97.3679 83.4813 97.3679 88.9012 95.1163 88.6548 92.1142 88.3592 89.1121 86.1913 88.7119 81.067 87.8112z" fill="#fff" stroke="#000" stroke-width=".804" stroke-miterlimit="10" stroke-linecap="round" stroke-linejoin="round"/><path d="M30.9561 82.0576C29.2809 82.9081 21.693 84.4592 18.5396 81.8574C18.5396 81.8574 24.2059 81.1569 23.7624 76.3035C23.1219 69.4487 16.1253 67.9477 9.81854 70.8497C5.43335 72.9011 2.82195 79.0054 5.03918 85.8102C8.04475 94.9666 18.7367 98.8193 34.1095 92.765C45.7869 88.1118 30.9561 82.0576 30.9561 82.0576Z" fill="#000"/><path d="M30.9561 82.1081C29.2809 82.9587 21.693 84.5098 18.5396 81.908C18.5396 81.908 24.3044 81.4577 23.7132 76.0038C23.0234 69.5493 16.1253 67.9982 9.81854 70.9003C5.43335 72.9517 2.82195 79.056 5.03918 85.8607C8.04475 95.0171 18.7367 98.8698 34.1095 92.8156C45.7869 88.1623 30.9561 82.1081 30.9561 82.1081Z" stroke="#000" stroke-width=".804" stroke-miterlimit="10" stroke-linecap="round" stroke-linejoin="round"/><path d="M67.5167 67.8484C67.1718 67.5482 66.7283 67.9985 66.9747 68.3487 68.4528 70.7004 70.8179 74.5531 71.3599 76.3043 72.1482 78.9562 72.0004 82.5086 71.754 84.7602 71.7048 85.2105 72.296 85.3606 72.4438 84.9604 73.8234 81.558 75.3509 74.403 67.5167 67.8484zM71.7072 69.848C69.7363 60.0412 61.0645 56.6388 55.7431 56.3386 55.2504 56.2885 55.1026 57.0391 55.5953 57.1892 57.7633 57.8396 60.9167 59.0405 64.0208 61.1419 67.3713 63.4435 69.6378 67.3963 70.9188 70.0982 71.1159 70.5985 71.8057 70.3484 71.7072 69.848z" fill="#fff" stroke="#000" stroke-width=".804" stroke-miterlimit="10" stroke-linecap="round" stroke-linejoin="round"/><path d="M84.3696 80.7577C82.9407 78.5061 78.3585 71.0009 79.0483 68.299C79.7381 65.5971 79.9844 62.595 79.9844 62.595" stroke="#000" stroke-width=".804" stroke-miterlimit="10" stroke-linecap="round" stroke-linejoin="round"/><path d="M103.484 95.0173C103.731 93.4662 103.583 92.0152 101.661 90.364M107.919 94.7163C108.116 93.1652 108.215 91.414 105.258 89.4626" stroke="#000" stroke-width="1.1" stroke-miterlimit="10" stroke-linecap="round" stroke-linejoin="round"/><path d="M105.947 40.6789C104.026 33.7741 71.1616 29.0708 71.1616 29.0708C70.5704 29.2209 66.875 31.7727 66.875 31.7727C68.2546 36.9263 72.7876 49.1849 89.8849 50.9361C96.7337 51.6366 105.504 47.1334 106.834 44.4315C106.785 44.4315 106.489 42.6303 105.947 40.6789Z" fill="#fff" stroke="#000" stroke-width=".804" stroke-miterlimit="10" stroke-linecap="round" stroke-linejoin="round"/><path d="M104.521 41.5795C102.994 36.1257 83.7776 31.2223 75.1551 29.8213L67.9121 34.8748C70.3757 40.7289 76.9288 49.7352 89.8873 50.9361C96.4897 51.5365 104.373 47.5837 105.506 45.9326C105.506 45.9326 105.063 43.5309 104.521 41.5795Z" fill="#FC964D"/><path d="M105.947 40.6789C104.026 33.7741 70.8167 29.0708 70.8167 29.0708 70.2255 29.2209 66.875 31.7727 66.875 31.7727 68.2546 36.9263 72.7876 49.1849 89.8849 50.9361 96.7337 51.6366 105.504 47.1334 106.834 44.4315 106.785 44.4315 106.489 42.6303 105.947 40.6789zM83.4307 97.3174C85.2045 95.4161 85.9929 94.1151 85.2538 92.6641 84.8596 91.8636 83.7264 91.3132 81.3613 91.6634" stroke="#000" stroke-width="1.1" stroke-miterlimit="10" stroke-linecap="round" stroke-linejoin="round"/><path d="M69.9788 29.6206C68.2543 29.9208 54.9017 42.1794 46.082 50.5352C45.8849 50.7354 45.3429 51.0856 45.3429 51.0856C39.4303 51.3858 38.1 53.3872 38.1 53.3872C40.0709 53.3372 41.8446 54.6381 41.8446 54.6381C37.8044 55.2886 36.9175 57.5401 36.9175 57.5401C38.0507 57.39 38.7405 57.6902 38.7405 57.6902C35.0451 61.5429 32.7294 64.3949 31.3005 66.9467C28.8369 71.2998 23.0721 83.058 33.2221 92.5646C43.3721 102.071 52.8322 96.6175 52.8322 96.6175C52.8322 96.6175 53.8669 99.4695 66.0371 99.1692C81.1635 98.769 81.804 98.5188 83.4793 97.2679C83.4793 97.2679 88.8991 95.0163 88.6528 92.0142C88.4064 89.0121 86.2877 88.6619 81.1142 87.7613C75.9407 86.8606 71.5062 86.8106 71.5062 86.8106L72.3438 85.3596C72.3438 85.3596 80.6708 84.459 84.4154 80.6563C84.4154 80.6563 90.9686 90.3631 92.9887 92.1143C95.0088 93.8655 99.7389 96.8676 103.582 94.9163C103.582 94.9163 105.947 96.017 107.967 94.6161C107.967 94.6161 109.79 93.5653 109.347 92.5146C109.347 92.5146 110.973 92.4646 112.796 91.9642C117.132 90.7133 115.604 88.6119 114.816 87.0608C112.944 83.3082 108.263 84.0086 106.637 82.0072C105.356 80.4562 104.223 65.896 103.139 60.8925C102.055 55.889 108.509 49.6846 106.44 42.2294C104.321 34.8743 69.9788 29.6206 69.9788 29.6206Z" stroke="#000" stroke-width="1.1" stroke-miterlimit="10" stroke-linecap="round" stroke-linejoin="round"/><path d="M96.884 53.9883C82.3981 57.0405 76.2884 47.0335 72.938 48.0342 72.1003 48.2843 72.0018 51.0363 75.1059 53.438 75.1059 53.438 74.6625 53.8883 73.48 53.6381 72.9872 53.538 72.5931 54.0884 72.8394 54.5387 73.5785 55.7396 75.0074 57.3407 77.5202 57.2406 77.5202 57.2406 77.7173 57.6409 76.8304 57.8911 76.387 57.9911 76.2884 58.5916 76.6333 58.8417 77.3724 59.4422 78.8998 59.3421 80.4273 59.4922 82.3981 59.6923 82.6938 61.6937 85.3544 62.5443 88.6556 63.6451 89.4933 61.6937 93.0901 63.0947 95.1103 63.8953 96.2928 65.3963 97.4753 69.3491 97.9187 70.8501 98.51 70.8001 98.7564 69.249 100.284 59.6423 101.22 61.6437 104.226 54.989 106.738 49.4352 106.541 47.1335 106.541 47.1335 106.541 47.1335 103.24 52.6374 96.884 53.9883zM17.7524 95.5674C10.3616 90.4138 11.9876 89.213 11.6427 89.0628 11.2485 88.8627 10.2631 89.9635 10.2631 89.9635 7.94731 84.8099 11.692 79.8064 11.1992 79.5562 10.066 78.9558 8.58785 79.5562 8.58785 79.5562 8.88348 76.5541 15.0424 75.2031 15.0424 75.2031 14.6975 73.8522 12.5296 73.7521 12.5296 73.7521 13.9585 72.201 20.2652 71.1003 23.665 76.0537 23.665 73.4519 21.4478 70.9502 19.7725 70.3498 18.3929 69.8994 20.7087 68.0481 20.7087 68.0481 19.5262 67.848 15.3381 67.798 12.7759 69.3991 11.8891 69.9495 12.234 66.447 12.234 66.447 7.35605 68.3984 6.56771 72.4012 5.73009 73.8022 5.23737 74.6528 3.6114 72.4012 3.6114 72.4012 3.11868 74.0023 2.62597 77.855 3.85776 82.4582 4.05485 83.2588 1 80.9071 1 80.9071 1.93616 85.1101 5.63154 87.5118 6.07499 88.2623 6.46916 89.0128 4.25193 88.3123 4.25193 88.3123 5.58227 90.4638 7.30678 91.9148 8.78493 92.7154 11.1992 94.1664 14.3526 95.1671 17.7524 95.5674z" fill="#fff" stroke="#000" stroke-width="1.1" stroke-miterlimit="10" stroke-linecap="round" stroke-linejoin="round"/><path d="M93.4321 47.7837C105.06 45.9324 112.402 36.8761 111.958 25.1178C111.466 11.6084 103.286 20.2645 106.686 10.0573C108.854 3.65284 107.277 0.950945 105.109 1.05102C103.286 1.10105 99.6403 2.85228 96.9303 3.55277C95.2551 3.95305 89.5889 3.40266 86.6818 3.6028C84.169 3.75291 81.1141 4.95374 78.2071 5.30399C75.103 5.65423 72.4423 5.50413 70.7671 6.10455C68.4513 6.95514 68.0571 8.85647 72.6394 11.6084C76.8768 14.1602 64.8545 18.3631 69.3382 32.1728C71.9496 40.3285 82.4445 49.5349 93.4321 47.7837Z" fill="#fff" stroke="#000" stroke-width=".804" stroke-miterlimit="10" stroke-linecap="round" stroke-linejoin="round"/><path d="M93.4356 47.7835C105.064 45.9322 112.405 36.8759 111.962 25.1177C111.814 20.7146 110.829 18.6631 109.695 17.5624C107.38 15.2608 113.686 3.20232 105.064 1.05082C102.502 0.400363 98.4613 6.20442 95.7021 6.4546C94.5689 6.55467 90.6764 5.90421 87.8186 6.10435C85.3058 6.25446 82.6451 7.55537 79.7381 7.85558C76.634 8.20582 73.3328 5.35383 70.7214 6.10435C68.3563 6.80484 69.0954 21.8654 69.0954 21.8654C69.0954 21.8654 67.1738 25.7181 69.2925 32.1726C71.9531 40.3283 82.448 49.5347 93.4356 47.7835Z" fill="#000"/><path d="M93.4321 47.7837C105.06 45.9324 112.402 36.8761 111.958 25.1178C111.466 11.6084 103.286 20.2645 106.686 10.0573C108.854 3.65284 107.277 0.950945 105.109 1.05102C103.286 1.10105 99.6403 2.85228 96.9303 3.55277C95.2551 4.00308 91.1163 3.20252 87.618 3.55277C85.1051 3.80294 81.1141 5.00378 78.2071 5.30399C75.103 5.65423 72.4423 5.50413 70.7671 6.10455C68.4513 6.95515 68.0571 8.85648 72.6394 11.6084C76.8768 14.1602 64.8545 18.3631 69.3382 32.1728C71.9496 40.3285 82.4445 49.5349 93.4321 47.7837Z" stroke="#000" stroke-width="1.1" stroke-miterlimit="10" stroke-linecap="round" stroke-linejoin="round"/><path d="M95.4549 45.7319C85.1571 47.1829 79.7864 43.4803 76.5345 40.178 73.3811 37.0258 72.642 34.3239 72.0508 31.8722 72.0508 31.8722 74.5636 32.6727 74.0709 31.9722 73.5782 31.2217 72.4942 29.5705 72.9377 27.1188 72.9377 27.1188 74.4651 28.0195 74.5144 27.1188 74.6129 24.9673 75.1056 22.9159 76.4852 22.4155 76.4852 22.4155 76.6823 24.8172 77.3229 24.9173 77.9634 25.0174 79.0474 23.5663 79.1459 24.1167 79.3923 25.4176 77.8156 30.7714 79.6386 31.2717 81.4617 31.7721 84.5658 29.0202 85.6498 26.5684 85.7483 26.3183 86.0932 26.4183 86.1425 26.6685 86.3396 27.5691 87.6699 28.9201 88.4583 29.2703 90.8726 30.271 94.1738 29.4204 95.5041 27.419 96.1447 26.4684 96.2432 25.6178 96.1939 24.9173 96.1447 24.517 96.6374 24.2668 96.933 24.517 98.6575 25.868 101.712 28.77 102.846 28.3697 105.851 27.2689 102.501 22.8158 103.092 20.7644 103.092 20.7644 104.176 21.8151 104.767 21.3648 105.161 21.0646 104.57 18.0625 104.57 18.0625 106.935 18.5628 107.182 21.2647 107.477 22.7658 107.576 23.2661 109.054 21.8652 109.054 21.8652 109.99 23.8666 109.3 25.2175 108.61 26.8687 108.216 27.8193 110.532 26.4684 110.532 26.4684 111.025 27.6192 109.596 32.9229 108.857 34.6741 106.689 40.0279 101.565 44.8813 95.4549 45.7319zM86.5864 16.5121C86.2908 15.2612 83.3837 13.8102 81.7578 16.0618 80.1318 18.3133 81.8563 20.2647 84.2706 19.0639 86.6849 17.7629 86.7835 17.2126 86.5864 16.5121zM92.5956 15.2104C92.2507 13.9596 94.665 11.5078 96.9807 13.0589 99.2965 14.61 98.3111 17.0617 95.6011 16.7615 92.9405 16.4613 92.7927 15.7608 92.5956 15.2104z" fill="#fff" stroke="#000" stroke-width=".804" stroke-miterlimit="10" stroke-linecap="round" stroke-linejoin="round"/><path d="M92.0043 27.5194C90.0334 27.5194 88.4567 27.8196 88.506 29.2206C88.5553 30.5715 90.3291 33.6237 93.2361 33.2234C95.6011 32.8731 96.9807 29.1205 95.6011 27.3693C94.5172 26.0684 93.0883 27.5694 92.0043 27.5194Z" fill="#fff" stroke="#000" stroke-width=".804" stroke-miterlimit="10" stroke-linecap="round" stroke-linejoin="round"/><path d="M92.3004 28.8194C90.9207 29.0195 88.5064 28.0188 88.605 30.0202C88.6542 30.8208 90.2802 33.6728 93.1872 33.2725C95.5523 32.9223 96.8826 28.9695 95.8479 27.9188C94.8132 26.868 93.4336 28.6193 92.3004 28.8194Z" fill="#000"/><path d="M159.556 139.997L145.612 142.999L143.937 140.197L159.556 139.997Z" fill="#fff"/><path d="M159.556 139.997L145.612 142.999L143.937 140.197L159.556 139.997Z" stroke="#000" stroke-width="1.1" stroke-miterlimit="10" stroke-linecap="round" stroke-linejoin="round"/><path d="M158.767 86.1603L146.843 23.9168L150.686 16.0112L204.639 31.5221L211.833 45.682L220.899 108.126L158.767 86.1603Z" fill="#FC964D"/><path d="M158.767 86.1603L146.843 23.9168L150.686 16.0112L204.639 31.5221L211.833 45.682L220.899 108.126L158.767 86.1603Z" stroke="#000" stroke-width="1.1" stroke-miterlimit="10" stroke-linecap="round" stroke-linejoin="round"/><path d="M158.77 86.1599L154.927 95.2663L217.058 117.132L221 108.025L158.77 86.1599Z" fill="#FC964D"/><path d="M158.77 86.1599L154.927 95.2663L217.058 117.132L221 108.025L158.77 86.1599Z" stroke="#000" stroke-width="1.1" stroke-miterlimit="10" stroke-linecap="round" stroke-linejoin="round"/><path d="M213.017 53.9377L209.568 60.6424C209.371 61.6932 209.223 62.6438 209.075 63.6445L215.825 112.379L220.999 107.976L213.017 53.9377Z" fill="#fff" stroke="#000" stroke-width=".804" stroke-miterlimit="10" stroke-linecap="round" stroke-linejoin="round"/><path d="M213.017 53.9377L209.568 60.6424C209.371 61.6932 209.223 62.6438 209.075 63.6445L215.825 112.379L220.999 107.976L213.017 53.9377Z" stroke="#000" stroke-width="1.1" stroke-miterlimit="10" stroke-linecap="round" stroke-linejoin="round"/><path d="M148.915 34.6736L144.629 36.9252C144.185 37.9259 144.087 38.7264 143.643 39.7271L151.379 90.4126L158.819 86.1596L148.915 34.6736Z" fill="#FC964D"/><path d="M148.37 31.8718L142.359 35.2242C141.915 36.2249 141.57 36.9254 141.127 37.9261L151.375 90.4128L158.815 86.1598L148.37 31.8718Z" stroke="#000" stroke-width="1.1" stroke-miterlimit="10" stroke-linecap="round" stroke-linejoin="round"/><path d="M168.728 94.5353C169.197 93.3863 168.924 92.1806 168.119 91.8424C167.315 91.5041 166.283 92.1614 165.814 93.3104C165.346 94.4594 165.619 95.6651 166.423 96.0033C167.228 96.3415 168.26 95.6843 168.728 94.5353Z" fill="#fff" stroke="#000" stroke-width="1.1" stroke-miterlimit="10" stroke-linecap="round" stroke-linejoin="round"/><path d="M154.974 84.509L154.925 95.2666L203.112 112.228L217.056 117.132L159.556 139.998L145.612 140.198V143L88.605 120.985V110.227L93.1873 109.977L95.0596 104.473L154.974 84.509Z" fill="#fff"/><path d="M207.424 108.257C207.892 107.108 207.62 105.902 206.815 105.564 206.011 105.226 204.979 105.883 204.51 107.032 204.042 108.181 204.314 109.386 205.119 109.725 205.924 110.063 206.956 109.406 207.424 108.257zM150.686 16.0112L139.058 19.914 154.727 24.6172C155.318 22.7159 160.836 22.7159 167.094 24.5672 173.351 26.4185 177.983 29.5207 177.441 31.422L193.109 36.1253 204.59 31.5721 150.686 16.0112z" fill="#fff" stroke="#000" stroke-width="1.1" stroke-miterlimit="10" stroke-linecap="round" stroke-linejoin="round"/><path d="M95.0596 104.473V106.775L154.974 86.8105L154.925 95.2665L206.857 113.529L159.606 132.793L143.986 132.993L145.612 135.795L88.605 110.227L93.1873 109.977L95.0596 104.473Z" fill="#FC964D"/><path d="M95.0591 115.13L154.924 95.2666L217.056 117.132L159.556 139.998L95.0591 115.13Z" stroke="#000" stroke-width="1.1" stroke-miterlimit="10" stroke-linecap="round" stroke-linejoin="round"/><path d="M143.986 129.441L159.605 129.241 159.556 139.998 143.937 140.199 143.986 129.441zM217.057 106.775L159.606 129.241 159.557 139.998 217.057 117.132V106.775z" fill="#fff" stroke="#000" stroke-width=".804" stroke-miterlimit="10" stroke-linecap="round" stroke-linejoin="round"/><path d="M217.057 106.775L159.606 129.241 159.557 139.998 217.057 117.132V106.775zM143.986 129.441L159.605 129.241 159.556 139.998 143.937 140.199 143.986 129.441z" stroke="#000" stroke-width="1.1" stroke-miterlimit="10" stroke-linecap="round" stroke-linejoin="round"/><path d="M166.897 122.136L163.941 124.087L153.446 123.286C151.623 123.136 151.229 121.585 152.904 121.235L162.512 119.284L165.912 120.084C167.341 120.334 167.883 121.485 166.897 122.136Z" fill="#000"/><path d="M164.386 119.034L162.218 122.186L153.3 122.886C151.773 122.986 151.132 120.935 152.512 120.184L160.247 115.831L163.253 116.282C164.485 116.482 165.125 117.983 164.386 119.034Z" fill="#fff" stroke="#000" stroke-width="1.1" stroke-miterlimit="10" stroke-linecap="round" stroke-linejoin="round"/><path d="M167.488 109.978C167.094 110.228 166.601 110.328 166.059 110.278L159.457 109.377C158.225 109.227 157.486 108.176 158.077 107.426L158.964 106.175C159.457 105.474 160.688 105.374 161.575 105.875L163.398 106.975C163.645 107.126 163.891 107.226 164.137 107.276L166.503 107.726C167.931 107.976 168.473 109.277 167.488 109.978Z" fill="#000"/><path d="M165.666 108.075C165.42 108.425 165.075 108.626 164.631 108.676L159.458 109.076C158.472 109.176 157.733 108.225 158.029 107.275L158.472 105.774C158.719 104.923 159.655 104.523 160.394 104.923L161.97 105.723C162.168 105.824 162.365 105.874 162.611 105.874H164.483C165.666 105.874 166.306 107.175 165.666 108.075Z" fill="#fff" stroke="#000" stroke-width="1.1" stroke-miterlimit="10" stroke-linecap="round" stroke-linejoin="round"/><path d="M121.468 116.181L119.645 117.231C119.3 117.431 118.709 117.381 118.364 117.131L116.196 115.53C115.704 115.18 115.901 114.63 116.541 114.529L118.069 114.329C118.266 114.279 118.463 114.329 118.66 114.379L121.124 115.13C121.764 115.33 121.961 115.88 121.468 116.181Z" fill="#000"/><path d="M119.845 114.781L118.909 116.182C118.712 116.482 118.367 116.532 118.072 116.332L116.446 115.181C116.101 114.931 116.101 114.38 116.495 114.18L117.382 113.68C117.48 113.63 117.628 113.58 117.776 113.63L119.451 113.88C119.895 113.88 120.092 114.38 119.845 114.781Z" fill="#fff" stroke="#000" stroke-width="1.1" stroke-miterlimit="10" stroke-linecap="round" stroke-linejoin="round"/><path d="M95.0596 104.473L154.974 84.509 154.925 95.2666 203.112 112.228 159.606 129.24 143.986 129.44 145.612 132.292 88.605 110.227 93.1873 109.977 95.0596 104.473zM95.0591 104.473V115.081" stroke="#000" stroke-width="1.1" stroke-miterlimit="10" stroke-linecap="round" stroke-linejoin="round"/><path d="M145.612 132.292V142.999L88.605 120.984V110.227L145.612 132.292Z" fill="#fff" stroke="#000" stroke-width=".804" stroke-miterlimit="10" stroke-linecap="round" stroke-linejoin="round"/><path d="M145.612 132.292V142.999L88.605 120.984V110.227L145.612 132.292Z" stroke="#000" stroke-width="1.1" stroke-miterlimit="10" stroke-linecap="round" stroke-linejoin="round"/><path d="M159.853 125.288L160.69 124.988C162.021 124.537 161.922 123.587 160.493 123.086C160.149 122.936 159.754 122.836 159.311 122.786L157.931 122.586C155.665 122.286 153.94 123.286 155.074 124.237L155.616 124.687C156.453 125.488 158.523 125.738 159.853 125.288Z" fill="#000"/><path d="M158.569 123.537L158.815 122.836C159.16 121.735 158.421 120.585 157.288 120.484C156.992 120.434 156.746 120.484 156.5 120.585L155.662 120.935C154.282 121.485 154.135 123.387 155.366 124.187L156.007 124.587C156.894 125.138 158.175 124.637 158.569 123.537Z" fill="#fff" stroke="#000" stroke-width="1.1" stroke-miterlimit="10" stroke-linecap="round" stroke-linejoin="round"/><path d="M135.662 107.575C133.543 107.725 133.001 109.076 134.085 110.177C135.169 111.278 142.314 111.678 143.693 111.928C145.073 112.178 143.989 109.727 143.989 109.727C143.989 109.727 145.27 107.925 142.856 107.475C140.441 107.025 136.992 107.475 135.662 107.575Z" fill="#000"/><path d="M134.524 105.174C132.898 105.874 132.652 108.076 133.588 109.527C134.524 110.978 140.043 110.177 141.127 110.277C142.211 110.377 141.127 106.825 141.127 106.825C141.127 106.825 141.915 103.773 140.043 103.573C138.121 103.272 135.559 104.723 134.524 105.174Z" fill="#fff" stroke="#000" stroke-width="1.1" stroke-miterlimit="10" stroke-linecap="round" stroke-linejoin="round"/><path d="M136.25 108.375C136.644 107.975 139.846 106.474 141.127 106.774" stroke="#000" stroke-width="1.1" stroke-miterlimit="10" stroke-linecap="round" stroke-linejoin="round"/><path d="M152.706 111.328C152.706 111.328 155.416 112.329 156.746 112.579C158.077 112.829 159.21 112.929 159.358 112.028C159.506 111.078 158.52 110.177 157.141 109.927C155.81 109.677 152.706 111.328 152.706 111.328Z" fill="#000"/><path d="M152.805 111.327C152.805 111.327 154.924 111.777 156.008 111.777 157.043 111.777 157.929 111.727 157.929 110.976 157.929 110.226 157.092 109.575 156.008 109.575 154.973 109.575 152.805 111.327 152.805 111.327zM68.8956 6.8542C67.5653 7.7048 67.0233 9.25588 66.9247 11.1072 66.8755 11.5075 65.7422 9.95637 65.7422 9.95637 65.2988 12.5582 66.5798 14.2594 66.7277 15.0599 66.8262 15.5603 65.2495 14.8598 65.2495 14.8598 65.9886 19.413 68.3536 20.4137 69.3391 22.265 69.4869 22.5152 71.9997 20.2636 73.1823 19.2128 70.1767 17.9119 70.5709 14.7597 70.5709 14.7597L72.8866 17.1114C71.9012 15.2601 71.507 12.8584 71.9012 12.4081 72.6403 11.6576 76.04 16.4109 77.5674 14.7097 78.9963 13.1086 79.9818 11.7576 80.031 11.2072 80.0803 9.75623 73.4286 4.00221 68.8956 6.8542zM106.343 1.14929C102.746-.00151706 97.5725 7.40366 97.8681 8.75461 97.8681 8.75461 99.1491 9.95545 100.824 11.4565 102.45 12.9075 104.963 7.55377 105.604 8.15419 105.998 8.50443 106.294 10.706 105.801 12.5573 106.343 12.3571 106.836 12.107 107.082 11.8067 107.082 11.8067 107.328 13.658 105.456 15.2592 106.983 16.3099 109.89 18.2112 110.038 17.3606 110.235 15.8596 112.797 13.3078 112.058 9.90541 112.058 9.90541 110.334 11.2063 110.285 10.5058 110.235 9.6052 112.058 7.50373 111.221 5.50233 111.221 5.50233 109.792 6.70317 109.644 6.15279 109.003 3.601 107.92 1.64964 106.343 1.14929z" fill="#fff" stroke="#000" stroke-width="1.1" stroke-miterlimit="10" stroke-linecap="round" stroke-linejoin="round"/><path d="M113.143 91.9637C113.487 91.2132 113.093 87.7608 110.728 87.2104C110.137 87.0603 109.349 86.9602 109.349 86.9602" stroke="#000" stroke-width="1.1" stroke-miterlimit="10" stroke-linecap="round" stroke-linejoin="round"/><path d="M95.355 35.1242C93.8276 34.824 92.8422 33.9734 92.7929 33.9233C92.7929 33.9233 91.5118 35.4244 90.7235 35.9247C89.3931 36.7753 87.8657 36.8254 87.8657 36.8254C89.738 38.1263 89.3439 42.029 91.8567 43.8303C93.1871 44.7809 94.813 44.6308 95.897 44.4807C98.9026 43.9804 96.7346 35.3744 95.355 35.1242Z" fill="#FC964D"/><path d="M95.6014 35.1742C94.074 34.874 92.8422 33.9734 92.8422 33.9233C92.8422 33.9233 91.5611 35.4244 90.7728 35.9247C89.4425 36.7753 87.915 36.8254 87.915 36.8254C89.7874 38.1263 89.3932 42.029 91.906 43.8303C93.2364 44.7809 94.8623 44.7809 95.9463 44.4807C100.332 43.2298 98.9026 37.2757 98.0157 35.4244C97.9172 35.2242 96.981 35.4244 95.6014 35.1742Z" stroke="#000" stroke-width="1.1" stroke-miterlimit="10" stroke-linecap="round" stroke-linejoin="round"/><path d="M97.917 35.3764C98.4097 36.1269 99.1488 38.4786 98.8532 40.7802 99.543 38.5286 99.6415 36.1269 101.514 33.425 100.725 34.2256 97.917 35.3764 97.917 35.3764zM87.8658 36.8259C86.3877 36.926 84.9095 36.4756 83.6777 35.7751 86.8804 37.5264 88.0629 41.4291 91.1178 43.2304 91.167 43.2804 91.2163 43.2804 91.3149 43.3304 89.3933 41.4291 89.5903 38.0267 87.8658 36.8259z" fill="#000"/><path d="M95.2091 41.378C93.3861 39.927 94.4208 36.1743 92.3021 34.5232L91.0703 35.724C91.0703 35.724 92.0065 36.3245 92.3021 37.5753C92.5977 38.8262 93.3861 40.6775 94.0759 41.1278C95.2584 41.9284 95.2091 41.378 95.2091 41.378Z" fill="#fff"/><path d="M81.0674 32.9736C81.8065 34.975 84.9599 37.0265 87.8669 36.7763C87.8669 36.7763 89.3943 36.7263 90.7246 35.8757C91.513 35.3753 92.7941 33.8743 92.7941 33.8743C92.7941 33.8743 94.0259 34.6748 95.5533 35.1251C99.3472 36.1759 102.698 33.3739 103.289 29.4712" stroke="#000" stroke-width="1.1" stroke-miterlimit="10" stroke-linecap="round" stroke-linejoin="round"/><path d="M95.1098 41.2774C93.1882 39.326 94.42 36.1238 92.3013 34.4727L95.1098 41.2774Z" fill="#fff"/><path d="M95.1098 41.2774C93.1882 39.326 94.42 36.1238 92.3013 34.4727" stroke="#000" stroke-width="1.1" stroke-miterlimit="10" stroke-linecap="round" stroke-linejoin="round"/></svg>